<?xml version="1.0" encoding="utf-8"?>
<!-- Generator: Adobe Illustrator 23.0.1, SVG Export Plug-In . SVG Version: 6.00 Build 0)  -->
<svg version="1.1" id="图层_1" xmlns="http://www.w3.org/2000/svg" xmlns:xlink="http://www.w3.org/1999/xlink" x="0px" y="0px"
	 viewBox="0 0 93 29" style="enable-background:new 0 0 93 29;" xml:space="preserve">
<g>
	<path d="M39.2,10.1c-0.9-0.8-2-1.3-3.2-1.3c-2.6,0-4.9,2.1-4.9,4.9c0,2.9,2.4,4.9,4.9,4.9c1.4,0,2.4-0.5,3.3-1.3l1,1.1
		c-1.1,1-2.7,1.7-4.3,1.7c-4.2,0-6.5-3.3-6.5-6.3s2.3-6.3,6.5-6.3c1.6,0,3.2,0.7,4.2,1.6L39.2,10.1z"/>
	<path d="M48.3,14.2c0-1.4-1.4-1.7-2.5-1.7c-0.8,0-1.5,0.2-2.3,0.6l-0.6-1.2c1.3-0.5,2.3-0.6,3-0.6c2,0,3.9,0.9,3.9,2.9V20h-1.4
		v-0.9c-0.7,0.8-1.6,1.1-2.7,1.1c-2.1,0-3.7-1.1-3.7-3c0-1.5,1.3-2.9,3.7-2.9c0.9,0,1.8,0.3,2.6,1V14.2z M46,15.4
		c-1.8,0-2.4,0.9-2.4,1.7s0.6,1.7,2.4,1.7s2.4-0.9,2.4-1.7S47.8,15.4,46,15.4z"/>
	<path d="M53.6,7.8c0.6,0,1,0.5,1,1c0,0.6-0.5,1-1,1c-0.6,0-1-0.5-1-1C52.6,8.2,53,7.8,53.6,7.8z M52.9,11.5h1.5v8.4h-1.5V11.5z"/>
	<path d="M60,19.8l-3.5-8.3h1.7l2.7,6.5l2.7-6.5h1.6l-5.2,12h-1.5L60,19.8z"/>
	<path d="M68.4,7.8c0.6,0,1,0.5,1,1c0,0.6-0.5,1-1,1c-0.6,0-1-0.5-1-1C67.4,8.2,67.8,7.8,68.4,7.8z M67.7,11.5h1.5v8.4h-1.5V11.5z"
		/>
	<path d="M73.3,17.9c0.6,0,1.1,0.5,1.1,1.1s-0.5,1.1-1.1,1.1s-1.1-0.5-1.1-1.1S72.7,17.9,73.3,17.9z"/>
	<path d="M77.4,7.6H79v10.8h4.3v1.5h-5.9V7.6z"/>
	<path d="M86.4,7.8c0.6,0,1,0.5,1,1c0,0.6-0.5,1-1,1c-0.6,0-1-0.5-1-1C85.4,8.2,85.9,7.8,86.4,7.8z M85.7,11.5h1.5v8.4h-1.5V11.5z"
		/>
</g>
<path d="M9.7,27.8c-0.2,0-0.3-0.1-0.4-0.2l-5.1-5C4.1,22.4,4,22.3,4,22.1s0.1-0.3,0.2-0.4l10.6-10.6c0.2-0.2,0.6-0.2,0.9,0
	c0.2,0.2,0.2,0.6,0,0.9L5.5,22.1l4.2,4.2l11.8-11.8L9.7,2.7L5.5,6.9l5.1,5.1c0.2,0.2,0.2,0.6,0,0.9c-0.2,0.2-0.6,0.2-0.9,0L4.2,7.4
	C4.1,7.2,4,7.1,4,6.9c0-0.2,0.1-0.3,0.2-0.4l5.1-5.1c0.1-0.1,0.3-0.2,0.4-0.2s0.3,0.1,0.4,0.2l12.6,12.6c0.2,0.2,0.2,0.6,0,0.9
	L10.1,27.6C10,27.7,9.9,27.8,9.7,27.8z"/>
</svg>
